<svg width="27" height="20" viewBox="0 0 27 20" fill="none" xmlns="http://www.w3.org/2000/svg">
<path d="M0.954072 8.93947C0.672866 9.22077 0.514893 9.60223 0.514893 9.99997C0.514893 10.3977 0.672866 10.7792 0.954072 11.0605L9.43957 19.546C9.57794 19.6892 9.74346 19.8035 9.92647 19.8821C10.1095 19.9607 10.3063 20.0021 10.5055 20.0038C10.7046 20.0056 10.9022 19.9676 11.0865 19.8922C11.2708 19.8168 11.4383 19.7054 11.5792 19.5646C11.72 19.4237 11.8314 19.2562 11.9068 19.0719C11.9822 18.8876 12.0202 18.69 12.0184 18.4909C12.0167 18.2917 11.9753 18.0949 11.8967 17.9119C11.8181 17.7289 11.7038 17.5633 11.5606 17.425L5.63557 11.5L25.5001 11.5C25.8979 11.5 26.2794 11.3419 26.5607 11.0606C26.842 10.7793 27.0001 10.3978 27.0001 9.99997C27.0001 9.60215 26.842 9.22062 26.5607 8.93931C26.2794 8.65801 25.8979 8.49997 25.5001 8.49997L5.63557 8.49997L11.5606 2.57497C11.8338 2.29207 11.985 1.91317 11.9816 1.51987C11.9782 1.12658 11.8204 0.750359 11.5423 0.472246C11.2642 0.194134 10.888 0.0363808 10.4947 0.0329628C10.1014 0.0295448 9.72248 0.180737 9.43957 0.453974L0.954072 8.93947Z" fill="#212529"/>
</svg>
