<svg width="33" height="32" viewBox="0 0 33 32" fill="none" xmlns="http://www.w3.org/2000/svg">
<path d="M17.8708 2.66814C18.8438 2.66441 19.8167 2.67419 20.7895 2.69748L21.0481 2.70681C21.3468 2.71748 21.6415 2.73081 21.9975 2.74681C23.4161 2.81348 24.3841 3.03748 25.2335 3.36681C26.1135 3.70548 26.8548 4.16414 27.5961 4.90548C28.274 5.57162 28.7986 6.37741 29.1335 7.26681C29.4628 8.11614 29.6868 9.08548 29.7535 10.5041C29.7695 10.8588 29.7828 11.1548 29.7935 11.4535L29.8015 11.7121C29.8251 12.6844 29.8354 13.6569 29.8321 14.6295L29.8335 15.6241V17.3708C29.8367 18.3438 29.8265 19.3168 29.8028 20.2895L29.7948 20.5481C29.7841 20.8468 29.7708 21.1415 29.7548 21.4975C29.6881 22.9161 29.4615 23.8841 29.1335 24.7335C28.7997 25.6238 28.2749 26.4303 27.5961 27.0961C26.9294 27.7739 26.1232 28.2985 25.2335 28.6335C24.3841 28.9628 23.4161 29.1868 21.9975 29.2535C21.6415 29.2695 21.3468 29.2828 21.0481 29.2935L20.7895 29.3015C19.8168 29.3252 18.8438 29.3354 17.8708 29.3321L16.8761 29.3335H15.1308C14.1578 29.3368 13.1848 29.3265 12.2121 29.3028L11.9535 29.2948C11.6369 29.2833 11.3205 29.27 11.0041 29.2548C9.58545 29.1881 8.61745 28.9615 7.76678 28.6335C6.87703 28.2993 6.0711 27.7746 5.40545 27.0961C4.72685 26.4299 4.20175 25.6236 3.86679 24.7335C3.53745 23.8841 3.31345 22.9161 3.24678 21.4975C3.23194 21.1811 3.2186 20.8647 3.20678 20.5481L3.20012 20.2895C3.17554 19.3168 3.16442 18.3438 3.16678 17.3708V14.6295C3.16306 13.6569 3.17284 12.6844 3.19612 11.7121L3.20545 11.4535C3.21612 11.1548 3.22945 10.8588 3.24545 10.5041C3.31212 9.08414 3.53612 8.11748 3.86545 7.26681C4.20062 6.37697 4.72674 5.5714 5.40679 4.90681C6.07198 4.22781 6.8774 3.70224 7.76678 3.36681C8.61745 3.03748 9.58412 2.81348 11.0041 2.74681L11.9535 2.70681L12.2121 2.70014C13.1844 2.67558 14.1569 2.66446 15.1295 2.66681L17.8708 2.66814ZM16.5001 9.33481C15.6168 9.32232 14.7398 9.48551 13.9201 9.8149C13.1004 10.1443 12.3543 10.6333 11.7252 11.2536C11.0962 11.8738 10.5967 12.6129 10.2557 13.4278C9.91475 14.2428 9.73917 15.1174 9.73917 16.0008C9.73917 16.8842 9.91475 17.7588 10.2557 18.5738C10.5967 19.3888 11.0962 20.1278 11.7252 20.7481C12.3543 21.3683 13.1004 21.8573 13.9201 22.1867C14.7398 22.5161 15.6168 22.6793 16.5001 22.6668C18.2682 22.6668 19.9639 21.9644 21.2142 20.7142C22.4644 19.4639 23.1668 17.7683 23.1668 16.0001C23.1668 14.232 22.4644 12.5363 21.2142 11.2861C19.9639 10.0359 18.2682 9.33481 16.5001 9.33481ZM16.5001 12.0015C17.0315 11.9917 17.5594 12.0879 18.0532 12.2844C18.5469 12.481 18.9966 12.7739 19.3758 13.1462C19.7551 13.5185 20.0564 13.9626 20.262 14.4526C20.4677 14.9426 20.5737 15.4687 20.5738 16.0001C20.5739 16.5316 20.4681 17.0577 20.2626 17.5478C20.057 18.0378 19.7559 18.4821 19.3768 18.8545C18.9976 19.2269 18.5481 19.52 18.0544 19.7167C17.5607 19.9134 17.0328 20.0098 16.5015 20.0001C15.4406 20.0001 14.4232 19.5787 13.673 18.8286C12.9229 18.0784 12.5015 17.061 12.5015 16.0001C12.5015 14.9393 12.9229 13.9219 13.673 13.1717C14.4232 12.4216 15.4406 12.0001 16.5015 12.0001L16.5001 12.0015ZM23.5001 7.33481C23.07 7.35203 22.6632 7.53501 22.3649 7.84544C22.0667 8.15587 21.9001 8.56966 21.9001 9.00014C21.9001 9.43063 22.0667 9.84442 22.3649 10.1548C22.6632 10.4653 23.07 10.6483 23.5001 10.6655C23.9421 10.6655 24.3661 10.4899 24.6786 10.1773C24.9912 9.86476 25.1668 9.44084 25.1668 8.99881C25.1668 8.55678 24.9912 8.13286 24.6786 7.8203C24.3661 7.50774 23.9421 7.33214 23.5001 7.33214V7.33481Z" fill="black"/>
</svg>
