<svg width="27" height="28" viewBox="0 0 27 28" fill="none" xmlns="http://www.w3.org/2000/svg">
<path d="M13.5001 0.666504C6.14008 0.666504 0.166748 6.63984 0.166748 13.9998C0.166748 21.3598 6.14008 27.3332 13.5001 27.3332C20.8601 27.3332 26.8334 21.3598 26.8334 13.9998C26.8334 6.63984 20.8601 0.666504 13.5001 0.666504ZM19.6867 9.73317C19.4867 11.8398 18.6201 16.9598 18.1801 19.3198C17.9934 20.3198 17.6201 20.6532 17.2734 20.6932C16.5001 20.7598 15.9134 20.1865 15.1667 19.6932C13.9934 18.9198 13.3267 18.4398 12.1934 17.6932C10.8734 16.8265 11.7267 16.3465 12.4867 15.5732C12.6867 15.3732 16.1001 12.2665 16.1667 11.9865C16.176 11.9441 16.1748 11.9001 16.1632 11.8582C16.1515 11.8164 16.1299 11.7781 16.1001 11.7465C16.0201 11.6798 15.9134 11.7065 15.8201 11.7198C15.7001 11.7465 13.8334 12.9865 10.1934 15.4398C9.66008 15.7998 9.18008 15.9865 8.75341 15.9732C8.27341 15.9598 7.36675 15.7065 6.68675 15.4798C5.84675 15.2132 5.19341 15.0665 5.24675 14.5998C5.27341 14.3598 5.60675 14.1198 6.23341 13.8665C10.1267 12.1732 12.7134 11.0532 14.0067 10.5198C17.7134 8.97317 18.4734 8.7065 18.9801 8.7065C19.0867 8.7065 19.3401 8.73317 19.5001 8.8665C19.6334 8.97317 19.6734 9.11984 19.6867 9.2265C19.6734 9.3065 19.7001 9.5465 19.6867 9.73317Z" fill="black"/>
</svg>
