<svg width="27" height="20" viewBox="0 0 27 20" fill="none" xmlns="http://www.w3.org/2000/svg">
<path d="M26.0459 11.0605C26.3271 10.7792 26.4851 10.3978 26.4851 10C26.4851 9.60228 26.3271 9.22082 26.0459 8.93953L17.5604 0.454026C17.4221 0.310761 17.2565 0.196488 17.0735 0.117874C16.8905 0.0392605 16.6937 -0.00211889 16.4945 -0.00384962C16.2954 -0.00558034 16.0978 0.0323726 15.9135 0.107794C15.7292 0.183215 15.5617 0.294595 15.4208 0.435434C15.28 0.576273 15.1686 0.74375 15.0932 0.928095C15.0178 1.11244 14.9798 1.30996 14.9816 1.50913C14.9833 1.7083 15.0247 1.90513 15.1033 2.08813C15.1819 2.27114 15.2962 2.43666 15.4394 2.57503L21.3644 8.50003L1.49993 8.50003C1.1021 8.50003 0.720572 8.65806 0.439266 8.93937C0.157961 9.22067 -7.24792e-05 9.6022 -7.24792e-05 10C-7.24792e-05 10.3979 0.157961 10.7794 0.439266 11.0607C0.720572 11.342 1.1021 11.5 1.49993 11.5L21.3644 11.5L15.4394 17.425C15.1662 17.7079 15.015 18.0868 15.0184 18.4801C15.0218 18.8734 15.1796 19.2496 15.4577 19.5278C15.7358 19.8059 16.112 19.9636 16.5053 19.967C16.8986 19.9705 17.2775 19.8193 17.5604 19.546L26.0459 11.0605Z" fill="#212529"/>
</svg>
