<svg width="32" height="33" viewBox="0 0 32 33" fill="none" xmlns="http://www.w3.org/2000/svg">
<path d="M22.6667 28.5004C20.4617 28.4984 18.2911 27.9534 16.3467 26.9137L15.7467 26.5804C11.601 24.3514 8.20225 20.9526 5.97333 16.807L5.64 16.207C4.57309 14.2516 4.00951 12.0613 4 9.83369V8.94036C3.99944 8.22964 4.28261 7.54809 4.78667 7.04702L7.04 4.79369C7.25884 4.57316 7.56775 4.46686 7.87595 4.50604C8.18415 4.54521 8.45664 4.72542 8.61333 4.99369L11.6133 10.1404C11.9167 10.6642 11.8291 11.3267 11.4 11.7537L8.88 14.2737C8.67072 14.4806 8.62196 14.8004 8.76 15.0604L9.22667 15.9404C10.9027 19.0449 13.4524 21.59 16.56 23.2604L17.44 23.7404C17.7 23.8784 18.0197 23.8296 18.2267 23.6204L20.7467 21.1004C21.1736 20.6713 21.8361 20.5837 22.36 20.887L27.5067 23.887C27.7749 24.0437 27.9552 24.3162 27.9943 24.6244C28.0335 24.9326 27.9272 25.2416 27.7067 25.4604L25.4533 27.7137C24.9523 28.2177 24.2707 28.5009 23.56 28.5004H22.6667Z" fill="#212529"/>
</svg>
